<svg xmlns="http://www.w3.org/2000/svg" xml:space="preserve" style="fill-rule:evenodd;clip-rule:evenodd;stroke-linecap:round;stroke-linejoin:round;stroke-miterlimit:1.5" viewBox="0 0 210 210"><ellipse cx="75.374" cy="87.6" rx="38.205" ry="39.952" style="fill:var(--color-primary);stroke:#f3f3f3;stroke-width:.78px" transform="matrix(2.61745 0 0 2.50299 -92.287 -114.261)"/><path d="M118.408 20.04 120 20c28.982 0 55.101 12.356 73.352 32.096-4.511 3.779-13.495 12.576-15.404 21.281-2.47 11.261 4.439 23.644 4.668 24.903.229 1.26.563 7.858-7.331 9.877-7.895 2.018-11.691-3.383-12.38-4.404-2.253-3.339-4.539-20.796-4.606-20.772-4.872 1.801-17.567 29.052-16.32 39.248 9.094-3.851 16.51-1.085 16.51-1.085s4.9 5.642 7.582 13.1c4.048 4.654 8.961 5.022 11.67 5.252 2.709.229 13.084.31 13.084.31s4.909.739 6.137 7.209c1.229 6.47-2.381 8.826-5.02 10.078-2.64 1.252-9.119 1.581-14.638.118 2.847 3.241 3.65 6.562 3.65 6.562s-6.545 3.607-15.137 2.378c-1.617 3.185-4.347 5.775-7.974 7.407 4.606 8.649 3.179 16.999 3.179 16.999s-20.235-1.403-26.414-7.976c1.409 3.08 4.933 11.542.079 15.99-4.855 4.448-8.743 6.615-17.502 2.958-29.845-12.459-53.449-52.685-52.116-88.805 1.238-33.533 26.439-78.563 53.339-92.684Z" style="fill:#333;stroke:#f3f3f3;stroke-width:2px" transform="translate(-15 -15)"/><path d="M215.71 91.011a98.167 98.167 0 0 1 4.251 27.467c-6.838 8.905-20.332 14.432-22.915 14.582-2.693.304-9.218.699-10.314-6.737s3.658-10.787 5.519-11.136c6.793-1.761 18.637-9.399 23.459-24.176Z" style="fill:#333;stroke:#f3f3f3;stroke-width:2px" transform="translate(-15 -15)"/><path d="M136.695 150.316c4.986 0 9.034 3.975 9.034 8.87 0 4.896-4.048 8.87-9.034 8.87-4.986 0-9.034-3.974-9.034-8.87 0-4.895 4.048-8.87 9.034-8.87Zm.223 2.736c3.268 0 5.921 2.734 5.921 6.101s-2.653 6.101-5.921 6.101c-3.267 0-5.92-2.734-5.92-6.101s2.653-6.101 5.92-6.101ZM156.46 135.848c4.267 0 7.732 3.551 7.732 7.925 0 4.373-3.465 7.924-7.732 7.924s-7.731-3.551-7.731-7.924c0-4.374 3.464-7.925 7.731-7.925Zm.03 2.066c3.059 0 5.541 2.563 5.541 5.721s-2.482 5.721-5.541 5.721c-3.058 0-5.541-2.563-5.541-5.721s2.483-5.721 5.541-5.721Z" style="fill:#f3f3f3" transform="translate(-15 -15)"/><ellipse cx="121.216" cy="187.353" rx="5.876" ry="5.027" style="fill:#f3f3f3" transform="rotate(34.357 137.268 157.837)"/><ellipse cx="120.284" cy="197.52" rx="1.541" ry="1.561" style="fill:#f3f3f3" transform="translate(-14.371 -15.462)"/><ellipse cx="120.284" cy="197.52" rx="1.541" ry="1.561" style="fill:#f3f3f3" transform="translate(-8.498 -15.469)"/><ellipse cx="120.284" cy="197.52" rx="1.541" ry="1.561" style="fill:#f3f3f3" transform="translate(-4.103 -19.013)"/><ellipse cx="120.284" cy="197.52" rx="1.541" ry="1.561" style="fill:#f3f3f3" transform="translate(-3.644 -24.618)"/><g transform="translate(-15 -15)"><ellipse cx="184.413" cy="148.386" rx="3.828" ry="3.945" style="fill:#f3f3f3" transform="matrix(1.0916 0 0 1 -16.735 .091)"/><ellipse cx="188.062" cy="154.387" rx="1.416" ry="1.408" style="fill:#f3f3f3"/><ellipse cx="188.062" cy="154.387" rx="1.416" ry="1.408" style="fill:#f3f3f3" transform="translate(3.433 -3.396)"/><ellipse cx="188.062" cy="154.387" rx="1.416" ry="1.408" style="fill:#f3f3f3" transform="translate(3.94 -7.813)"/><ellipse cx="188.062" cy="154.387" rx="1.416" ry="1.408" style="fill:#f3f3f3" transform="translate(.634 -10.87)"/></g><ellipse cx="105.871" cy="91.553" rx="5.519" ry="4.74" style="fill:#f3f3f3" transform="matrix(.02204 -.99976 1.08662 .02396 -11.072 181.607)"/><ellipse cx="98.347" cy="98.893" rx="1.762" ry="1.745" style="fill:#f3f3f3" transform="translate(-14.93 -14.98)"/><ellipse cx="98.347" cy="98.893" rx="1.762" ry="1.745" style="fill:#f3f3f3" transform="translate(-10.896 -11.642)"/><ellipse cx="98.347" cy="98.893" rx="1.762" ry="1.745" style="fill:#f3f3f3" transform="translate(-5.22 -11.376)"/><ellipse cx="98.347" cy="98.893" rx="1.762" ry="1.745" style="fill:#f3f3f3" transform="translate(-.903 -14.385)"/><ellipse cx="170.26" cy="94.488" rx="4.901" ry="4.411" style="fill:#f3f3f3" transform="rotate(8.168 259.81 -8.669)"/><ellipse cx="168.084" cy="103.043" rx="1.307" ry="1.323" style="fill:#f3f3f3" transform="translate(-15.069 -15.55)"/><ellipse cx="168.084" cy="103.043" rx="1.307" ry="1.323" style="fill:#f3f3f3" transform="translate(-11.032 -14.29)"/><ellipse cx="168.084" cy="103.043" rx="1.307" ry="1.323" style="fill:#f3f3f3" transform="translate(-7.034 -15.14)"/><ellipse cx="168.084" cy="103.043" rx="1.307" ry="1.323" style="fill:#f3f3f3" transform="translate(-4.491 -18.533)"/></svg>